<svg id="visual" viewBox="0 0 1920 1080" width="1920" height="1080" xmlns="http://www.w3.org/2000/svg" xmlns:xlink="http://www.w3.org/1999/xlink" version="1.1"><rect x="0" y="0" width="1920" height="1080" fill="#173358"></rect><path d="M0 397L45.7 367.3C91.3 337.7 182.7 278.3 274.2 236C365.7 193.7 457.3 168.3 548.8 184.5C640.3 200.7 731.7 258.3 823 264.7C914.3 271 1005.7 226 1097 196.3C1188.3 166.7 1279.7 152.3 1371.2 125.8C1462.7 99.3 1554.3 60.7 1645.8 53.3C1737.3 46 1828.7 70 1874.3 82L1920 94L1920 1081L1874.3 1081C1828.7 1081 1737.3 1081 1645.8 1081C1554.3 1081 1462.7 1081 1371.2 1081C1279.7 1081 1188.3 1081 1097 1081C1005.7 1081 914.3 1081 823 1081C731.7 1081 640.3 1081 548.8 1081C457.3 1081 365.7 1081 274.2 1081C182.7 1081 91.3 1081 45.7 1081L0 1081Z" fill="#173358"></path><path d="M0 237L45.7 246C91.3 255 182.7 273 274.2 339.7C365.7 406.3 457.3 521.7 548.8 548.3C640.3 575 731.7 513 823 450.2C914.3 387.3 1005.7 323.7 1097 299.8C1188.3 276 1279.7 292 1371.2 331.5C1462.7 371 1554.3 434 1645.8 432.8C1737.3 431.7 1828.7 366.3 1874.3 333.7L1920 301L1920 1081L1874.3 1081C1828.7 1081 1737.3 1081 1645.8 1081C1554.3 1081 1462.7 1081 1371.2 1081C1279.7 1081 1188.3 1081 1097 1081C1005.7 1081 914.3 1081 823 1081C731.7 1081 640.3 1081 548.8 1081C457.3 1081 365.7 1081 274.2 1081C182.7 1081 91.3 1081 45.7 1081L0 1081Z" fill="#284068"></path><path d="M0 811L45.7 816.2C91.3 821.3 182.7 831.7 274.2 836.8C365.7 842 457.3 842 548.8 776.3C640.3 710.7 731.7 579.3 823 531C914.3 482.7 1005.7 517.3 1097 530.3C1188.3 543.3 1279.7 534.7 1371.2 553.7C1462.7 572.7 1554.3 619.3 1645.8 623.2C1737.3 627 1828.7 588 1874.3 568.5L1920 549L1920 1081L1874.3 1081C1828.7 1081 1737.3 1081 1645.8 1081C1554.3 1081 1462.7 1081 1371.2 1081C1279.7 1081 1188.3 1081 1097 1081C1005.7 1081 914.3 1081 823 1081C731.7 1081 640.3 1081 548.8 1081C457.3 1081 365.7 1081 274.2 1081C182.7 1081 91.3 1081 45.7 1081L0 1081Z" fill="#384e78"></path><path d="M0 680L45.7 738C91.3 796 182.7 912 274.2 959.5C365.7 1007 457.3 986 548.8 954C640.3 922 731.7 879 823 846C914.3 813 1005.7 790 1097 773.5C1188.3 757 1279.7 747 1371.2 743.8C1462.7 740.7 1554.3 744.3 1645.8 760.3C1737.3 776.3 1828.7 804.7 1874.3 818.8L1920 833L1920 1081L1874.3 1081C1828.7 1081 1737.3 1081 1645.8 1081C1554.3 1081 1462.7 1081 1371.2 1081C1279.7 1081 1188.3 1081 1097 1081C1005.7 1081 914.3 1081 823 1081C731.7 1081 640.3 1081 548.8 1081C457.3 1081 365.7 1081 274.2 1081C182.7 1081 91.3 1081 45.7 1081L0 1081Z" fill="#495b89"></path></svg>