<svg id="visual" viewBox="0 0 1920 800" width="1920" height="800" xmlns="http://www.w3.org/2000/svg" xmlns:xlink="http://www.w3.org/1999/xlink" version="1.1"><rect x="0" y="0" width="1920" height="800" fill="#001220"></rect><path d="M0 353L45.7 331.3C91.3 309.7 182.7 266.3 274.2 265.7C365.7 265 457.3 307 548.8 308.2C640.3 309.3 731.7 269.7 823 265.5C914.3 261.3 1005.7 292.7 1097 296.8C1188.3 301 1279.7 278 1371.2 299C1462.7 320 1554.3 385 1645.8 389.3C1737.3 393.7 1828.7 337.3 1874.3 309.2L1920 281L1920 0L1874.3 0C1828.7 0 1737.3 0 1645.8 0C1554.3 0 1462.7 0 1371.2 0C1279.7 0 1188.3 0 1097 0C1005.7 0 914.3 0 823 0C731.7 0 640.3 0 548.8 0C457.3 0 365.7 0 274.2 0C182.7 0 91.3 0 45.7 0L0 0Z" fill="#173358"></path><path d="M0 359L45.7 325.8C91.3 292.7 182.7 226.3 274.2 212.5C365.7 198.7 457.3 237.3 548.8 267.5C640.3 297.7 731.7 319.3 823 325.7C914.3 332 1005.7 323 1097 298.7C1188.3 274.3 1279.7 234.7 1371.2 229.5C1462.7 224.3 1554.3 253.7 1645.8 254.3C1737.3 255 1828.7 227 1874.3 213L1920 199L1920 0L1874.3 0C1828.7 0 1737.3 0 1645.8 0C1554.3 0 1462.7 0 1371.2 0C1279.7 0 1188.3 0 1097 0C1005.7 0 914.3 0 823 0C731.7 0 640.3 0 548.8 0C457.3 0 365.7 0 274.2 0C182.7 0 91.3 0 45.7 0L0 0Z" fill="#23406f"></path><path d="M0 196L45.7 197.2C91.3 198.3 182.7 200.7 274.2 189.8C365.7 179 457.3 155 548.8 150.3C640.3 145.7 731.7 160.3 823 138.7C914.3 117 1005.7 59 1097 61.2C1188.3 63.3 1279.7 125.7 1371.2 143.2C1462.7 160.7 1554.3 133.3 1645.8 127C1737.3 120.7 1828.7 135.3 1874.3 142.7L1920 150L1920 0L1874.3 0C1828.7 0 1737.3 0 1645.8 0C1554.3 0 1462.7 0 1371.2 0C1279.7 0 1188.3 0 1097 0C1005.7 0 914.3 0 823 0C731.7 0 640.3 0 548.8 0C457.3 0 365.7 0 274.2 0C182.7 0 91.3 0 45.7 0L0 0Z" fill="#324d86"></path></svg>