<svg id="visual" viewBox="0 0 1000 600" width="1000" height="600" xmlns="http://www.w3.org/2000/svg" xmlns:xlink="http://www.w3.org/1999/xlink" version="1.1"><rect x="0" y="0" width="1000" height="600" fill="#495b89"></rect><path d="M488 0L638 0L638 60L634 60L634 120L486 120L486 180L454 180L454 240L613 240L613 300L523 300L523 360L537 360L537 420L599 420L599 480L632 480L632 540L458 540L458 600L0 600L0 540L0 540L0 480L0 480L0 420L0 420L0 360L0 360L0 300L0 300L0 240L0 240L0 180L0 180L0 120L0 120L0 60L0 60L0 0L0 0Z" fill="#173358"></path><path d="M350 0L491 0L491 60L284 60L284 120L454 120L454 180L349 180L349 240L425 240L425 300L408 300L408 360L452 360L452 420L334 420L334 480L404 480L404 540L295 540L295 600L0 600L0 540L0 540L0 480L0 480L0 420L0 420L0 360L0 360L0 300L0 300L0 240L0 240L0 180L0 180L0 120L0 120L0 60L0 60L0 0L0 0Z" fill="#64708d"></path><path d="M309 0L277 0L277 60L223 60L223 120L340 120L340 180L168 180L168 240L265 240L265 300L174 300L174 360L243 360L243 420L390 420L390 480L244 480L244 540L251 540L251 600L0 600L0 540L0 540L0 480L0 480L0 420L0 420L0 360L0 360L0 300L0 300L0 240L0 240L0 180L0 180L0 120L0 120L0 60L0 60L0 0L0 0Z" fill="#afb5c4"></path><path d="M112 0L131 0L131 60L209 60L209 120L177 120L177 180L144 180L144 240L98 240L98 300L80 300L80 360L224 360L224 420L204 420L204 480L172 480L172 540L91 540L91 600L0 600L0 540L0 540L0 480L0 480L0 420L0 420L0 360L0 360L0 300L0 300L0 240L0 240L0 180L0 180L0 120L0 120L0 60L0 60L0 0L0 0Z" fill="#ffffff"></path></svg>