<svg id="visual" viewBox="0 0 900 200" width="900" height="200" xmlns="http://www.w3.org/2000/svg" xmlns:xlink="http://www.w3.org/1999/xlink" version="1.1"><rect x="0" y="0" width="900" height="200" fill="#173358"></rect><path d="M0 125L21.5 130.5C43 136 86 147 128.8 154.8C171.7 162.7 214.3 167.3 257.2 164.3C300 161.3 343 150.7 385.8 149.5C428.7 148.3 471.3 156.7 514.2 162.2C557 167.7 600 170.3 642.8 175.3C685.7 180.3 728.3 187.7 771.2 189C814 190.3 857 185.7 878.5 183.3L900 181L900 0L878.5 0C857 0 814 0 771.2 0C728.3 0 685.7 0 642.8 0C600 0 557 0 514.2 0C471.3 0 428.7 0 385.8 0C343 0 300 0 257.2 0C214.3 0 171.7 0 128.8 0C86 0 43 0 21.5 0L0 0Z" fill="#173358"></path><path d="M0 155L21.5 153.3C43 151.7 86 148.3 128.8 136C171.7 123.7 214.3 102.3 257.2 97.3C300 92.3 343 103.7 385.8 115.3C428.7 127 471.3 139 514.2 143.5C557 148 600 145 642.8 137.7C685.7 130.3 728.3 118.7 771.2 118.8C814 119 857 131 878.5 137L900 143L900 0L878.5 0C857 0 814 0 771.2 0C728.3 0 685.7 0 642.8 0C600 0 557 0 514.2 0C471.3 0 428.7 0 385.8 0C343 0 300 0 257.2 0C214.3 0 171.7 0 128.8 0C86 0 43 0 21.5 0L0 0Z" fill="#284068"></path><path d="M0 49L21.5 48C43 47 86 45 128.8 44C171.7 43 214.3 43 257.2 55.2C300 67.3 343 91.7 385.8 100.7C428.7 109.7 471.3 103.3 514.2 100.8C557 98.3 600 99.7 642.8 96.2C685.7 92.7 728.3 84.3 771.2 83.7C814 83 857 90 878.5 93.5L900 97L900 0L878.5 0C857 0 814 0 771.2 0C728.3 0 685.7 0 642.8 0C600 0 557 0 514.2 0C471.3 0 428.7 0 385.8 0C343 0 300 0 257.2 0C214.3 0 171.7 0 128.8 0C86 0 43 0 21.5 0L0 0Z" fill="#384e78"></path><path d="M0 73L21.5 62.2C43 51.3 86 29.7 128.8 20.8C171.7 12 214.3 16 257.2 22C300 28 343 36 385.8 42.2C428.7 48.3 471.3 52.7 514.2 55.7C557 58.7 600 60.3 642.8 60.8C685.7 61.3 728.3 60.7 771.2 57.7C814 54.7 857 49.3 878.5 46.7L900 44L900 0L878.5 0C857 0 814 0 771.2 0C728.3 0 685.7 0 642.8 0C600 0 557 0 514.2 0C471.3 0 428.7 0 385.8 0C343 0 300 0 257.2 0C214.3 0 171.7 0 128.8 0C86 0 43 0 21.5 0L0 0Z" fill="#495b89"></path></svg>