<svg id="visual" viewBox="0 0 900 400" width="900" height="400" xmlns="http://www.w3.org/2000/svg" xmlns:xlink="http://www.w3.org/1999/xlink" version="1.1"><path d="M0 29L15 38.3C30 47.7 60 66.3 90 92.3C120 118.3 150 151.7 180 153.7C210 155.7 240 126.3 270 101C300 75.7 330 54.3 360 49C390 43.7 420 54.3 450 55C480 55.7 510 46.3 540 61C570 75.7 600 114.3 630 112.3C660 110.3 690 67.7 720 60.3C750 53 780 81 810 97.7C840 114.3 870 119.7 885 122.3L900 125L900 0L885 0C870 0 840 0 810 0C780 0 750 0 720 0C690 0 660 0 630 0C600 0 570 0 540 0C510 0 480 0 450 0C420 0 390 0 360 0C330 0 300 0 270 0C240 0 210 0 180 0C150 0 120 0 90 0C60 0 30 0 15 0L0 0Z" fill="#375682"></path><path d="M0 185L15 190.3C30 195.7 60 206.3 90 209C120 211.7 150 206.3 180 195.7C210 185 240 169 270 179.7C300 190.3 330 227.7 360 227.7C390 227.7 420 190.3 450 187C480 183.7 510 214.3 540 219.7C570 225 600 205 630 185.7C660 166.3 690 147.7 720 150.3C750 153 780 177 810 187C840 197 870 193 885 191L900 189L900 123L885 120.3C870 117.7 840 112.3 810 95.7C780 79 750 51 720 58.3C690 65.7 660 108.3 630 110.3C600 112.3 570 73.7 540 59C510 44.3 480 53.7 450 53C420 52.3 390 41.7 360 47C330 52.3 300 73.7 270 99C240 124.3 210 153.7 180 151.7C150 149.7 120 116.3 90 90.3C60 64.3 30 45.7 15 36.3L0 27Z" fill="#2a4871"></path><path d="M0 209L15 213C30 217 60 225 90 232.3C120 239.7 150 246.3 180 245C210 243.7 240 234.3 270 236.3C300 238.3 330 251.7 360 252.3C390 253 420 241 450 243.7C480 246.3 510 263.7 540 261.7C570 259.7 600 238.3 630 223C660 207.7 690 198.3 720 198.3C750 198.3 780 207.7 810 209C840 210.3 870 203.7 885 200.3L900 197L900 187L885 189C870 191 840 195 810 185C780 175 750 151 720 148.3C690 145.7 660 164.3 630 183.7C600 203 570 223 540 217.7C510 212.3 480 181.7 450 185C420 188.3 390 225.7 360 225.7C330 225.7 300 188.3 270 177.7C240 167 210 183 180 193.7C150 204.3 120 209.7 90 207C60 204.3 30 193.7 15 188.3L0 183Z" fill="#1e3a60"></path><path d="M0 249L15 270.3C30 291.7 60 334.3 90 341C120 347.7 150 318.3 180 297.7C210 277 240 265 270 270.3C300 275.7 330 298.3 360 301C390 303.7 420 286.3 450 280.3C480 274.3 510 279.7 540 288.3C570 297 600 309 630 312.3C660 315.7 690 310.3 720 309.7C750 309 780 313 810 305.7C840 298.3 870 279.7 885 270.3L900 261L900 195L885 198.3C870 201.7 840 208.3 810 207C780 205.7 750 196.3 720 196.3C690 196.3 660 205.7 630 221C600 236.3 570 257.7 540 259.7C510 261.7 480 244.3 450 241.7C420 239 390 251 360 250.3C330 249.7 300 236.3 270 234.3C240 232.3 210 241.7 180 243C150 244.3 120 237.7 90 230.3C60 223 30 215 15 211L0 207Z" fill="#163153"></path><path d="M0 345L15 352.3C30 359.7 60 374.3 90 375C120 375.7 150 362.3 180 353C210 343.7 240 338.3 270 343C300 347.7 330 362.3 360 365.7C390 369 420 361 450 356.3C480 351.7 510 350.3 540 350.3C570 350.3 600 351.7 630 351C660 350.3 690 347.7 720 351C750 354.3 780 363.7 810 361.7C840 359.7 870 346.3 885 339.7L900 333L900 259L885 268.3C870 277.7 840 296.3 810 303.7C780 311 750 307 720 307.7C690 308.3 660 313.7 630 310.3C600 307 570 295 540 286.3C510 277.7 480 272.3 450 278.3C420 284.3 390 301.7 360 299C330 296.3 300 273.7 270 268.3C240 263 210 275 180 295.7C150 316.3 120 345.7 90 339C60 332.3 30 289.7 15 268.3L0 247Z" fill="#142c4a"></path><path d="M0 401L15 401C30 401 60 401 90 401C120 401 150 401 180 401C210 401 240 401 270 401C300 401 330 401 360 401C390 401 420 401 450 401C480 401 510 401 540 401C570 401 600 401 630 401C660 401 690 401 720 401C750 401 780 401 810 401C840 401 870 401 885 401L900 401L900 331L885 337.7C870 344.3 840 357.7 810 359.7C780 361.7 750 352.3 720 349C690 345.7 660 348.3 630 349C600 349.7 570 348.3 540 348.3C510 348.3 480 349.7 450 354.3C420 359 390 367 360 363.7C330 360.3 300 345.7 270 341C240 336.3 210 341.7 180 351C150 360.3 120 373.7 90 373C60 372.3 30 357.7 15 350.3L0 343Z" fill="#122741"></path></svg>